<?xml version="1.0" encoding="iso-8859-1"?><svg viewBox="0 0 512 512" xmlns="http://www.w3.org/2000/svg" xmlns:xlink="http://www.w3.org/1999/xlink"><style>:root>svg{display:none}:root>svg:target{display:block}</style><svg viewBox="0 0 511.995 511.995" id="close" xmlns="http://www.w3.org/2000/svg"><path d="M437.126 74.939c-99.826-99.826-262.307-99.826-362.133 0C26.637 123.314 0 187.617 0 256.005s26.637 132.691 74.993 181.047c49.923 49.923 115.495 74.874 181.066 74.874s131.144-24.951 181.066-74.874c99.826-99.826 99.826-262.268.001-362.113zM409.08 409.006c-84.375 84.375-221.667 84.375-306.042 0-40.858-40.858-63.37-95.204-63.37-153.001s22.512-112.143 63.37-153.021c84.375-84.375 221.667-84.355 306.042 0 84.355 84.375 84.355 221.667 0 306.022z"/><path d="M341.525 310.827l-56.151-56.071 56.151-56.071c7.735-7.735 7.735-20.29.02-28.046-7.755-7.775-20.31-7.755-28.065-.02l-56.19 56.111-56.19-56.111c-7.755-7.735-20.31-7.755-28.065.02-7.735 7.755-7.735 20.31.02 28.046l56.151 56.071-56.151 56.071c-7.755 7.735-7.755 20.29-.02 28.046 3.868 3.887 8.965 5.811 14.043 5.811s10.155-1.944 14.023-5.792l56.19-56.111 56.19 56.111c3.868 3.868 8.945 5.792 14.023 5.792a19.828 19.828 0 0014.043-5.811c7.733-7.756 7.733-20.311-.022-28.046z"/></svg><svg viewBox="0 0 512.001 512.001" id="cross" xmlns="http://www.w3.org/2000/svg"><path d="M512.001 84.853L427.148 0 256.001 171.147 84.853 0 0 84.853 171.148 256 0 427.148l84.853 84.853 171.148-171.147 171.147 171.147 84.853-84.853L340.853 256z" fill="#aaa"/></svg><svg viewBox="0 0 512.001 512.001" id="cross_accent" xmlns="http://www.w3.org/2000/svg"><path d="M512.001 84.853L427.148 0 256.001 171.147 84.853 0 0 84.853 171.148 256 0 427.148l84.853 84.853 171.148-171.147 171.147 171.147 84.853-84.853L340.853 256z" fill="#48b"/></svg><svg fill="none" viewBox="0 0 18 18" id="posts-card-icon" xmlns="http://www.w3.org/2000/svg"><path stroke="#fff" d="M9.5.5h8v8h-8zM8 3.5H0M.5 3v15M0 17.5h15M14.5 17v-7"/></svg><svg viewBox="0 0 24 24" id="ticket" xmlns="http://www.w3.org/2000/svg"><path d="M21.5 22h-19A2.503 2.503 0 010 19.5v-2a.5.5 0 01.5-.5H1c1.103 0 2-.897 2-2s-.897-2-2-2H.5a.5.5 0 01-.5-.5v-2C0 9.122 1.122 8 2.5 8h19c1.378 0 2.5 1.122 2.5 2.5v2a.5.5 0 01-.5.5H23a2.002 2.002 0 00-1.414 3.414c.377.378.879.586 1.413.586h.5a.5.5 0 01.5.5v2A2.502 2.502 0 0121.5 22zM1 18v1.5c0 .827.673 1.5 1.5 1.5h19c.827 0 1.5-.673 1.5-1.5V18h-.001a2.979 2.979 0 01-2.12-.878A2.982 2.982 0 0120 15c0-1.654 1.346-3 3-3v-1.5c0-.827-.673-1.5-1.5-1.5h-19C1.673 9 1 9.673 1 10.5V12c1.654 0 3 1.346 3 3s-1.346 3-3 3z"/><path d="M8.5 10a.5.5 0 01-.5-.5v-1a.5.5 0 011 0v1a.5.5 0 01-.5.5zM8.5 18.461a.5.5 0 01-.5-.5V16.27a.5.5 0 011 0v1.692a.5.5 0 01-.5.499zm0-4.23a.5.5 0 01-.5-.5v-1.692a.5.5 0 011 0v1.692a.5.5 0 01-.5.5zM8.5 22a.5.5 0 01-.5-.5v-1a.5.5 0 011 0v1a.5.5 0 01-.5.5z"/><path d="M2.5 9a.498.498 0 01-.175-.968l15.9-5.937c.773-.29 1.681.144 1.945.923l1.803 5.321a.5.5 0 01-.947.321l-1.803-5.321a.511.511 0 00-.649-.308l-15.9 5.937A.482.482 0 012.5 9z"/></svg><svg viewBox="0 0 490 490" id="triangle" xmlns="http://www.w3.org/2000/svg"><path d="M245 456.701L490 33.299H0z"/></svg></svg>